GIL04_free3_RRA_states
nRows=8
nColumns=47

# SIMM Motion File Header:
name GIL04_free3_RRA_states
datacolumns 47
datarows 8
otherdata 1
range 0.59483000000000030000 0.59833000000000036000
endheader
time	pelvis_tx	pelvis_ty	pelvis_tz	pelvis_tilt	pelvis_list	pelvis_rotation	hip_flexion_r	hip_adduction_r	hip_rotation_r	knee_angle_r	ankle_angle_r	subtalar_angle_r	mtp_angle_r	hip_flexion_l	hip_adduction_l	hip_rotation_l	knee_angle_l	ankle_angle_l	subtalar_angle_l	mtp_angle_l	lumbar_extension	lumbar_bending	lumbar_rotation	pelvis_tx_u	pelvis_ty_u	pelvis_tz_u	pelvis_tilt_u	pelvis_list_u	pelvis_rotation_u	hip_flexion_r_u	hip_adduction_r_u	hip_rotation_r_u	knee_angle_r_u	ankle_angle_r_u	subtalar_angle_r_u	mtp_angle_r_u	hip_flexion_l_u	hip_adduction_l_u	hip_rotation_l_u	knee_angle_l_u	ankle_angle_l_u	subtalar_angle_l_u	mtp_angle_l_u	lumbar_extension_u	lumbar_bending_u	lumbar_rotation_u
      0.59483000000000030000	      1.67858311115811400000	      0.70319502815713264000	     -0.20193372698787562000	     -2.30889977403739670000	     -1.48194766912778660000	      5.17875075858919850000	     32.48679284540647000000	      2.24744648500332910000	     -5.27239501118794870000	    -12.65582829189761500000	     -4.29062325889937050000	      0.00000000000000630601	     -0.00000000000003818189	    -22.82954991041117400000	      1.37488984460415310000	     -6.85925645235023750000	    -10.18366466295713100000	     -3.30535744942197200000	      0.00000000000032063697	     -0.00000000000014257873	     -0.26862070757801798000	      2.14260141214070640000	     -1.45142670188582850000	      1.43205533745843480000	      0.04999573175046648900	      0.06665178688308849600	      9.48716089928774940000	    -44.81877856394463300000	    -27.17705322370386900000	    -13.29143891492908500000	     78.66279316881572500000	     83.42366080615725800000	   -181.34330565867089000000	    -58.03005815615801300000	     -0.00000000000000898683	     -0.00000000000000506116	      6.68366244688858120000	    -60.92065141120392000000	    -32.82229462071055800000	   -176.75569744760773000000	   -252.63363506938612000000	      0.00000000000142278420	     -0.00000000000100134334	     14.38571518113209200000	     76.44556422068500000000	    -22.31929365635127000000
      0.59533000000000036000	      1.67929915191372750000	      0.70322051744210445000	     -0.20190015568716985000	     -2.30410872834813010000	     -1.50438222428135520000	      5.16508720722153920000	     32.48006686007509800000	      2.28689403830758580000	     -5.23050420050954570000	    -12.74651468370945100000	     -4.31950806549792170000	      0.00000000000000630150	     -0.00000000000003818547	    -22.82601383785957700000	      1.34436798047124270000	     -6.87564662029251040000	    -10.27235103130487000000	     -3.43212985511942530000	      0.00000000000032134598	     -0.00000000000014307148	     -0.26152415568449805000	      2.18082191288684910000	     -1.46247702878580640000	      1.43210296791424870000	      0.05195909886955310500	      0.06763275886560264600	      9.67700759491060760000	    -44.91895227749228800000	    -27.47630623196972300000	    -13.61297017402032600000	     79.12651132000644300000	     84.13829014968028700000	   -181.40086085802517000000	    -57.50477531820814600000	     -0.00000000000000869946	     -0.00000000000001531090	      7.46146038342108490000	    -61.16693282498801700000	    -32.73811652111292900000	   -177.99082500093829000000	   -254.45596972264789000000	      0.00000000000139863463	     -0.00000000000092785287	     14.00000595091512100000	     76.43554020458081800000	    -21.88185540477709200000
      0.59583000000000030000	      1.68001520936661210000	      0.70324698484558112000	     -0.20186609483524348000	     -2.29922285176747640000	     -1.52686618439068480000	      5.15127519743432050000	     32.47317954332078200000	      2.32657216060137180000	     -5.18825788817541510000	    -12.83722782806152900000	     -4.34812492765515660000	      0.00000000000000629786	     -0.00000000000003819821	    -22.82208751385479700000	      1.31372278518382930000	     -6.89199444851719360000	    -10.36165663706907800000	     -3.55981270826069900000	      0.00000000000032203468	     -0.00000000000014349849	     -0.25462111117514441000	      2.21903612284887020000	     -1.47330830343144940000	      1.43212204220634720000	      0.05390800196806214800	      0.06861009129571923900	      9.86634264988346210000	    -45.01650395600896100000	    -27.77108778540478100000	    -13.93649527406947700000	     79.58521443096528000000	     84.84591961300270700000	   -181.45045408622738000000	    -56.96084502071974500000	     -0.00000000000000593262	     -0.00000000000004654915	      8.24487363582698940000	    -61.41397393030171500000	    -32.65321489000036300000	   -179.23284685979218000000	   -256.27402702926213000000	      0.00000000000138956250	     -0.00000000000087613935	     13.61183923336933600000	     76.42053957011316400000	    -21.44289520967342400000
      0.59633000000000036000	      1.68073126922837050000	      0.70327442292353104000	     -0.20183154626791855000	     -2.29424248033123400000	     -1.54939828838545470000	      5.13731688294846390000	     32.46613002924335200000	      2.36647839308681720000	     -5.14565949387074100000	    -12.92796377928303100000	     -4.37646578814931340000	      0.00000000000000629430	     -0.00000000000003822136	    -22.81776802340174700000	      1.28295388259845880000	     -6.90829972257933100000	    -10.45158501632259500000	     -3.68840307243333450000	      0.00000000000032272204	     -0.00000000000014392250	     -0.24791270871396523000	      2.25724162608484890000	     -1.48391969505029950000	      1.43211275149123600000	      0.05584178016349226900	      0.06958338921146066400	     10.05511023109370300000	    -45.11141646751208600000	    -28.06128733904876800000	    -14.26203578829226800000	     80.03875862568878600000	     85.54627483938938300000	   -181.49188370796449000000	    -56.39817069956323100000	     -0.00000000000000944414	     -0.00000000000004738820	      9.03393041710818960000	    -61.66175844244907000000	    -32.56763645518966400000	   -180.48169655501638000000	   -258.08721504335927000000	      0.00000000000135202194	     -0.00000000000081501236	     13.22131904742434500000	     76.40058084423051800000	    -21.00256237221221100000
      0.59683000000000030000	      1.68144731743265520000	      0.70330282399645072000	     -0.20179651217613584000	     -2.28916784823313660000	     -1.57197715764615720000	      5.12321468849109960000	     32.45891718255865800000	      2.40661003698996550000	     -5.10271289320766730000	    -13.01871838572265900000	     -4.40452000950513160000	      0.00000000000000628880	     -0.00000000000003824136	    -22.81305263439138600000	      1.25206090731975860000	     -6.92456198757021560000	    -10.54213945540905900000	     -3.81789906180655690000	      0.00000000000032339650	     -0.00000000000014432450	     -0.24140016364432099000	      2.29543587933677750000	     -1.49431065872937840000	      1.43207534849563810000	      0.05775978108528611500	      0.07055230446045002200	     10.24323790941047300000	    -45.20366969747230000000	    -28.34681563368909000000	    -14.58952842916792600000	     80.48700869579580800000	     86.23895413778198800000	   -181.52534336253336000000	    -55.81695623363430800000	     -0.00000000000000411681	     -0.00000000000004771893	      9.82867974901607330000	    -61.91025950336113200000	    -32.48147224579801000000	   -181.73727653721949000000	   -259.89522226428141000000	      0.00000000000133692877	     -0.00000000000079013442	     12.82856959216112400000	     76.37567627608849800000	    -20.56098821108290100000
      0.59733000000000036000	      1.68216333993546500000	      0.70333217997067987000	     -0.20176099475630208000	     -2.28399935854053600000	     -1.59460151205460200000	      5.10897086333581820000	     32.45154017329643600000	      2.44696449569324810000	     -5.05942186463978500000	    -13.10948776219051700000	     -4.43227964430382930000	      0.00000000000000628689	     -0.00000000000003826439	    -22.80793838953114200000	      1.22104350703784360000	     -6.94078110553868390000	    -10.63332340234157600000	     -3.94829733310751110000	      0.00000000000032406745	     -0.00000000000014471243	     -0.23508449255558983000	      2.33361648118161600000	     -1.50448050079917150000	      1.43201009748371510000	      0.05966137676551477900	      0.07151646048864460100	     10.43066915801216000000	    -45.29324675223433200000	    -28.62756696866144400000	    -14.91898811949525300000	     80.92982130325583500000	     86.92368776578096900000	   -181.55062793499118000000	    -55.21713209804395500000	     -0.00000000000000097749	     -0.00000000000004905874	     10.62915245316064400000	    -62.15945665667029400000	    -32.39477123777330500000	   -182.99951233212201000000	   -261.69744903540169000000	      0.00000000000135310642	     -0.00000000000077849782	     12.43369969476395600000	     76.34584483568605200000	    -20.11832022527738700000
      0.59783000000000031000	      1.68287932294319710000	      0.70336248253609579000	     -0.20172499656393522000	     -2.27873730718371760000	     -1.61726995515691390000	      5.09458793207975000000	     32.44399787809148700000	      2.48753892958875510000	     -5.01579059780380200000	    -13.20026768443742600000	     -4.45973407558437000000	      0.00000000000000628539	     -0.00000000000003828958	    -22.80242251936069000000	      1.18990133952239030000	     -6.95695668474956900000	    -10.72514005955987500000	     -4.07959549539165070000	      0.00000000000032474175	     -0.00000000000014510499	     -0.22896679601582542000	      2.37178090520745370000	     -1.51442881851530680000	      1.43191732530409020000	      0.06154594819746948800	      0.07247552485763297800	     10.61733200109506500000	    -45.38012828612675500000	    -28.90345418662628100000	    -15.25034809121747300000	     81.36706099144466000000	     87.60007090528486600000	   -181.56792362509765000000	    -54.59890574754250300000	     -0.00000000000000875327	     -0.00000000000004477028	     11.43539888966881800000	    -62.40932057122481800000	    -32.30762456224983500000	   -184.26829855344209000000	   -263.49357154119178000000	      0.00000000000136835629	     -0.00000000000082558038	     12.03683725958136800000	     76.31109983491474200000	    -19.67469063310243600000
      0.59833000000000036000	      1.68359525273013480000	      0.70339372298250080000	     -0.20168852013938460000	     -2.27338216418681990000	     -1.63998118831110530000	      5.08006823651763460000	     32.43628950740435400000	      2.52833060422510950000	     -4.97182323029187940000	    -13.29105432161403800000	     -4.48687547714139170000	      0.00000000000000627985	     -0.00000000000003831035	    -22.79650202260796700000	      1.15863407939242100000	     -6.97308866452688390000	    -10.81759277908391500000	     -4.21178978787349930000	      0.00000000000032541873	     -0.00000000000014549465	     -0.22304796848820543000	      2.40992676529490170000	     -1.52415505529793620000	      1.43179736972779660000	      0.06341289978250173900	      0.07342913952140330000	     10.80316920167664600000	    -45.46429768566586200000	    -29.17437645269286900000	    -15.58361668666827500000	     81.79858507544122400000	     88.26783864624150100000	   -181.57702193789189000000	    -53.96223326817526100000	     -0.00000000000001467168	     -0.00000000000003200293	     12.24745221406199000000	    -62.65982667551118400000	    -32.22008346473014500000	   -185.54355286389580000000	   -265.28298258497034000000	      0.00000000000134393540	     -0.00000000000073632443	     11.63809588179400100000	     76.27146076850701200000	    -19.23024510363525200000
